<svg xmlns="http://www.w3.org/2000/svg" xmlns:xlink="http://www.w3.org/1999/xlink" width="159.852" height="25.771" viewBox="0 0 159.852 25.771">
  <defs>
    <clipPath id="clip-path">
      <rect id="사각형_1" data-name="사각형 1" width="159.852" height="25.771" fill="#fff"/>
    </clipPath>
  </defs>
  <g id="그룹_2" data-name="그룹 2" transform="translate(0 0)">
    <g id="그룹_1" data-name="그룹 1" transform="translate(0 0)" clip-path="url(#clip-path)">
      <path id="패스_1" data-name="패스 1" d="M66.226.067a.271.271,0,0,0-.11-.062c-.173-.037-.341.1-.6.32l-.2.165C64.606.9,64.067,2.817,63.947,3.6l-.075.045a3.131,3.131,0,0,0-2.057-1.686c.328,1.363,1.432,5.478,2.9,5.122.746-.18,2.305-3.6,2.32-5.475V1.539C67.027.546,66.6.187,66.226.067" transform="translate(-28.666 0)" fill="#fff"/>
      <path id="패스_2" data-name="패스 2" d="M84.218,36.081a11.2,11.2,0,0,0-4.264.621,1.515,1.515,0,0,0-.671.517c.027.414-.2,1.065.155,1.222.017,0,.017.064.035.1.1.114.211.131.317.275.068.1.122-.01.2.031.034.038.051.1.086.111.179.091.339.055.515.146a.42.42,0,0,0,.268.077c.054-.022.124.115.142.148.336.153.645.016.985.009,1.021-.017.83-.126,1.85-.144.86-.013,1.7.129,2.559.115.467-.016.974,0,1.437-.036.824-.052,1.65.085,2.475.1.412-.011.892.165,1.307.2a5.921,5.921,0,0,1,1.325-.024,1.09,1.09,0,0,1,.434.062,1.088,1.088,0,0,0,.406.157,7.414,7.414,0,0,0,1.8-.548.651.651,0,0,0,.243-.415,1.847,1.847,0,0,0,.081-1.083c-.021,0-.074.026-.094-.008-.038-.065-.029-.22-.083-.225a3.743,3.743,0,0,0-.493-.132c-.218-.048-.443-.157-.66-.2a51.881,51.881,0,0,0-10.349-1.067" transform="translate(-36.744 -15.057)" fill="#fff"/>
      <path id="패스_3" data-name="패스 3" d="M29.633,36.764c.186.045.4.04.5.174.1.105-.1.276-.085.415,0,.331.109.63.106.957a.225.225,0,0,1-.077.17.87.87,0,0,1-.223.227c-.257.176-.6.109-.891.2a5.824,5.824,0,0,1-1.189.216,13.841,13.841,0,0,1-2.123-.107,1.972,1.972,0,0,0-.8.116,3.056,3.056,0,0,1-.992.068c-1.725-.068-3.419-.108-5.137-.091-.3.011-.631.052-.933.065-1.381.084-2.76.057-4.144.1-.482.013-.96.03-1.446.016l-.782.02a30.658,30.658,0,0,1-3.1.062c-.39.006-.81.006-1.2.013a29.264,29.264,0,0,1-3.455.2,5.485,5.485,0,0,1-2.416-.692A3.356,3.356,0,0,1,0,37.692a1.34,1.34,0,0,1,.819-.478A22.563,22.563,0,0,1,3.08,36.7c.656-.119,1.255-.178,1.887-.239a143.337,143.337,0,0,1,21.151-.241,21.4,21.4,0,0,1,3.514.543" transform="translate(0 -15.006)" fill="#fff"/>
      <path id="패스_4" data-name="패스 4" d="M80.816,20.289v.1c.073.2.219.255.368.408h.479c0-.1.111,0,.111-.1a.4.4,0,0,0,.35-.2H82.2a.41.41,0,0,1,.357-.259c.2-.257.393-.513.59-.769a.3.3,0,0,1,.118-.259,9.73,9.73,0,0,1,.394-1.439,2.221,2.221,0,0,0,.039-.515c.04,0,.078,0,.078-.05a.459.459,0,0,1,.159-.41c.078,0,.157,0,.2-.1v-.1a.817.817,0,0,1,.575.359h.26c0,.1.05.1.1.156a2.5,2.5,0,0,1,.871.051c0,.153.208.1.26.255a1.544,1.544,0,0,0,.156.465.189.189,0,0,1-.053.154c.1.154.208.412.053.566a2.924,2.924,0,0,0,.1.667c-.1.1-.053.259-.053.361a2.9,2.9,0,0,1,.158.72c.207.257.154.564.312.822v.307c.1,0,0,.154.1.154a6.284,6.284,0,0,1-.1.979l-.158.154v.1c-.051,0-.1,0-.1-.052-.1.152-.258.257-.364.411-.1-.052-.155.05-.205.05-.1,0,0,.157-.1.157a.4.4,0,0,0-.26.1c-.1.051-.456-.051-.561.051l-.051-.051a.275.275,0,0,1-.207.1c0-.052,0-.1-.054-.1a.363.363,0,0,1-.415.2c-.046-.1-.027-.178-.145-.226a2.226,2.226,0,0,0-.2-.882c.039,0,.039-.045.039-.089a1.706,1.706,0,0,1-.117-.421c-.12-.183-.158-.461-.316-.6.039-.048-.079-.094-.04-.142l-.2-.231c-.079,0-.079.047-.116.092-.04.232-.239.418-.276.652l-.039-.048c-.041.137-.158.231-.158.372-.079.045-.119.185-.2.231v.094c-.276.278-.425.725-.757.921-.081.193-.289.232-.373.448a1.734,1.734,0,0,0-.474.108c-.1-.054-.256-.163-.359-.054,0-.054-.052-.054-.1-.054l-.05.054c-.1-.11-.259,0-.413-.054a6.465,6.465,0,0,0-1.031-.594c-.1,0,0-.163-.1-.163a.176.176,0,0,1-.151-.053c0-.163.049-.271-.106-.379l.051-.054c0-.054-.051-.054-.1-.054-.052-.324-.206-.595-.257-.917-.055-.055-.055-.055-.1-.11a1.028,1.028,0,0,0-.1-.432c-.05-.215.128-.4.028-.6a.192.192,0,0,1,.049-.152,1.525,1.525,0,0,1,.051-.669c-.051,0-.051-.051-.051-.1a1.339,1.339,0,0,0,.1-.616c.048-.155.148-.308.2-.463l-.048-.051c.1-.1.048-.26.2-.362,0-.048,0-.1-.05-.1,0-.1.1-.154.147-.207a2.282,2.282,0,0,1,.356-.586l-.038-.059a.67.67,0,0,1,.479-.206,1.067,1.067,0,0,1,.457.172c.057.121,0,.218.077.37h.075v.1c0,.051.036.051.072.051a.978.978,0,0,1,.074.461c0,.053.038.053.076.053-.038.1.074.205.074.309-.074.1,0,.256-.038.41.111.257.074.567.183.823a1.364,1.364,0,0,0,.149.565" transform="translate(-36.26 -6.926)" fill="#fff"/>
      <path id="패스_5" data-name="패스 5" d="M46.969,21.809a1.088,1.088,0,0,1,.245.235.637.637,0,0,0,.224.257,1.422,1.422,0,0,1,.2.106l.064.143.16.16c.169.055.2-.052.334.14.057,0,.113,0,.113.055l.057-.055c.056.111.169.164.228.217a.622.622,0,0,1,.432.178c.055,0,.062.125.062.07.174.049.292.178.4.066.056,0,.113,0,.113.055l.056-.055c.113-.055.138.093.251.038.058,0,.058.055.058.111h.112c.115.109.6-.037.712.075a7.577,7.577,0,0,0,1.685-.073c.005-.107.164.006.167-.1l.052.055c.213.063.443-.206.654-.091.058-.048.058-.048.114-.1.11-.048.265.172.38.019,0,.053.054.055.106.059,0-.054,0-.054.006-.105.167-.1.371-.07.494-.215l.217.024.116-.093c.282-.073.527-.312.846-.393.049-.058.156-.068.2-.177.055-.006.107-.012.162-.016.049-.054.1-.114.147-.17.167.036.313-.213.474-.239-.008-.05-.017-.1.038-.113l.062.042a.236.236,0,0,0,.136-.182c.168.024.261-.2.35-.32l.108-.017c.043-.062.043-.062.091-.122a.942.942,0,0,1,.107-.019c.144-.132.228-.3.431-.394-.006-.051-.014-.1.039-.113.114.035.09-.122.136-.181.045-.036.186-.146.225-.1-.007.087.14-.223.132-.139.037.054.224-.474.269-.507l-.453-1.282c-.166.257-.759,1.1-1.076,1.171.005.27-.27.284-.459.437.011.051.025.1-.031.118-.158.036-.226.229-.331.255-.012-.051-.063-.038-.119-.023-.042.062-.145.089-.175.2-.159.041-.206.209-.3.33L55.739,21c-.191.192-.468.172-.6.406-.307.154-.57.213-.888.34-.054,0-.108.008-.109-.045-.047.109-.271.019-.32.129a5.317,5.317,0,0,0-.921.068c0-.105-.161.01-.167-.094-.267.123-.537-.04-.809-.04-.055-.052-.163-.052-.217-.157a.594.594,0,0,1-.6-.156c-.162,0-.272-.156-.434-.21v-.1l-.109-.1c0-.157.163-.157.271-.209.109-.157.4-.119.51-.277,0-.054.146-.155.146-.208.053-.1.093-.2.145-.2.164-.1.058-.224.274-.278,0-.051.173-.182.116-.234.218-.155.213-.247.267-.561a1.018,1.018,0,0,0,.268-.536c.054-.052-.013-.281.1-.334a5.548,5.548,0,0,0-.088-.926l-.108-.1c0-.158-.108-.264-.054-.421-.161-.157-.123-.208-.285-.363l-.094-.108h-.108c-.055-.105-.217-.156-.217-.261a3.708,3.708,0,0,1-.65-.314l-.054.052-.055-.052-.109.1c0-.158-.162,0-.215-.1-.112,0-.218-.054-.326.052-.326-.107-.678.076-1-.078,0,.1-.218-.052-.218.1-.109.051-.265.048-.319.1H48.6a.831.831,0,0,1-.625.339c-.109,0,0,.157-.109.157h-.107a5.785,5.785,0,0,1-.814.786c0,.051-.109.1-.054.21,0,.051-.055.051-.11.051a.272.272,0,0,1-.108.21c0,.051,0,.105.054.105,0,.05-.083.186-.137.186-.053.208-.053.418-.216.523,0,.416-.113.619-.138,1.078a6.663,6.663,0,0,1,.056.832c.169.111-.042.1.071.267.055,0,.025.1.025.152.056.109.238.187.178.3,0,.055.1.1.153.1.056.11-.084.231.032.284,0,.056.18.013.121.122ZM50.509,18.4c-.112.055,0,.166-.112.221l.055.054a2.179,2.179,0,0,1-.876,1.495c-.054,0-.111,0-.111-.053,0-.113-.108-.279-.053-.388,0-.055-.056-.055-.111-.055.111-.112-.074-.221-.018-.387-.056,0-.056-.055-.056-.111.165-.111.03-.4.194-.506l-.053-.055a1.517,1.517,0,0,1,.249-.393v-.111a2.126,2.126,0,0,1,.779-.427c.055,0,.112,0,.112.054.163.224.055.441,0,.664" transform="translate(-21.441 -6.541)" fill="#fff"/>
      <path id="패스_6" data-name="패스 6" d="M66.328,17.959c.005.073.012.146.021.216.371.389.3,1.058.545,1.534-.119.164-.033.372-.084.526.073.063.073.063.143.127-.1.379.137.711.106,1.083l-.121.163c.005.07.015.143.082.133l-.059.081.072.063-.058.084c.064-.01.071.063.077.135-.116.161.1.352-.084.522a.271.271,0,0,1,.085.21c-.183.172-.071.482-.2.705l.067.07-.063.076-.069-.069c-.065,0-.065.076-.064.148.072.142.206.28.076.43l.071.07a.913.913,0,0,0-.314.55c-.062.074-.062.074-.121.147a.266.266,0,0,1,.065.205c-.12.147-.18.289-.3.436,0,.069.066.206-.057.282l.064.065c-.06.143-.118.355-.174.5.061,0,.061.066.063.137-.183.147-.395.306-.328.581-.117.216-.27.289-.392.5.066.137-.219.2-.215.338s-.184.079-.119.214l.063.066-.124.009c-.061.142-.061.142-.181.218,0,.069,0,.139-.061.142a2.5,2.5,0,0,0-.285.345c.064.065-.2.212-.137.214a.4.4,0,0,0-.15.267c-.06,0-.121-.006-.128.065l0,.091c-.043.048-.054.045-.145.068-.485.6-1.191.837-1.676,1.434l-.388.188c-.131.063-.088.273-.2.2.005-.069-.167.059-.23.058-.135.13-.338.036-.462.029,0-.07-.069-.054-.124-.126l-.07.063c-.055-.07-.194-.213-.257-.216-.054-.071.067-.144.006-.146l.066-.068c.006-.069-.1-.084-.158-.09-.111-.144.126-.034.077-.176l-.242-.024c-.057-.137-.176-.14-.228-.281.013-.137.285-.135.295-.273.125.006.088-.016.22-.079l-.046-.1c.134-.065.113-.184.173-.179-.006.069.047-.01.107-.006s.124.006.131-.064a.279.279,0,0,1,.078-.2l.127.007a2.822,2.822,0,0,0,.374-.421c.005-.069.005-.069.012-.139.067-.065.078-.2.209-.267-.006.07-.014.139.049.142.2-.128.079-.2.029-.344.068-.068.068-.068.136-.132-.005.07.1.016.042.014-.005.069.066-.164.128-.16.153-.257.041.047.269-.425.047-.054.164-.1.175-.136-.014-.006.143-.07.088-.14-.007-.057.015-.077-.113-.015.073-.133.292-.34.3-.477.18.078.037-.234.159-.226-.067.064-.127-.07-.126,0l.206-.008c.137-.131-.191-.125-.068-.273,0-.069-.021-.109-.083-.1,0-.07-.017-.126.046-.132l.063.066c.061-.073-.058-.306.064-.383,0-.072,0-.14,0-.208.181-.149.1-.125.156-.338l-.062-.064c0,.067.133-.066.071-.063,0-.07,0-.07,0-.139.123-.077.21-.539.206-.679,0,.139-.145-.317-.02-.254.18-.29.056-.675.085-1.03-.129-.055.1-.153.028-.282-.063.006-.123.017-.13-.052l.108-.156c-.005-.07-.012-.14-.071-.131-.008-.07-.013-.139.047-.146-.008-.071-.012-.138-.073-.13.054-.079.054-.079.11-.157-.007-.067-.069-.061-.13-.051.036-.288-.228-.493-.13-.785-.062.008-.069-.06-.075-.131.166-.234-.058-.512.043-.736-.128-.053-.08-.2-.1-.34.056-.078-.1-.146-.107-.213a5.119,5.119,0,0,1-.212-.943c-.124.119-.212-.967-.319-1.39-.16-.274-.052-.58-.147-.858.065-.01.133-.021.126-.091-.086-.208.108-.307.15-.531.134-.019.26-.11.407.016.125-.089.045-.225.038-.3l.727-.1c.01.071.013.144.082.135.2-.026.28.108.476.081.006.073.014.146.08.137a.318.318,0,0,1,.278.11c.066-.012.134-.02.126-.091l.075.062.059-.081a.22.22,0,0,0,.2.045c.075.065.094.282.22.191.319.542.7,1,.95,1.554" transform="translate(-27.828 -6.604)" fill="#fff"/>
      <path id="패스_7" data-name="패스 7" d="M16.431,16.27c-.023-.115-.178-.15-.241-.153s-.184.145-.245.032a1.138,1.138,0,0,1-.232.285.365.365,0,0,1-.219.057c-.032.177-.05.2.094.611.063.013.132.41.2.426-.03-.153.19.33.26.4l.09.024c.043.013.025.057,0,.1l.2.153c.02.058.064.075.014.158.153.01.249.111.378.171.041.022.016.061-.01.1.041.019.085.041.11,0,.112,0,.032.12.049.179l.067-.019c.017.059.1.1.1.1.135.22.781.485.942.683l.063-.032c.049.113.333.135.333.283l.06-.038c.029.052.456.142.575.211.059-.041-.024-.11.041-.145.068.068.217.213.286.282a2.544,2.544,0,0,1,.315.049c.165.189.508.071.709.172a.139.139,0,0,0,.113.077l.064-.034.025.057c.125-.069.194,0,.28-.083l.025.057.061-.036c.027.055.027.055.051.113.177.043.337.132.525.027a.14.14,0,0,0,.114.078c.064-.033.064-.033.128-.069.132.031.158.089.309.075l.025.058a.593.593,0,0,1,.5-.03c.039-.09.134.034.171-.059l.024.058c.148-.115.374-.054.527-.063l.024.058c.064-.034.04,0,.04,0,.126-.065.437-.07.522-.147a.625.625,0,0,0,.41.051c.049.013.147.038.194.054a.435.435,0,0,1,.536-.032,2.823,2.823,0,0,0,.67-.3c.048.018.1.032.149.048.072-.027.119-.012.168-.1a2.281,2.281,0,0,0,.572-.308c.021.059.143-.054.168,0,.024-.043.024-.043.05-.086.1.03.168-.1.265-.066.026-.044.026-.044.05-.088.147-.055.088-.095.234-.149.125-.093.3-.408.587-.548-.006-.1.181-.155.224-.247.019-.045.071-.033.118-.02l-.029-.058c.072-.033.053-.183.118-.118.018-.045.1-.161.061-.174.139-.117.138-.5.341-.55.018-.048.018-.048.037-.09.082-.119.049-.342.1-.368.017-.046-.007-.079.036-.066.051-.178.091-.45.14-.687-.042-.012-.023-.058,0-.1.042.012.06-.035.078-.078-.042-.01-.023-.058-.005-.1l.06-.036c-.086-.019.011-.144-.073-.165l.056-.038c-.071-.215.032-.437-.038-.654l.055-.035a.3.3,0,0,1,0-.382.182.182,0,0,1,0-.15c-.113-.077.024-.158-.047-.226.042-.138-.1-.274-.014-.4-.056-.114-.065-.161-.128-.271.013-.048.025-.1.037-.143-.042-.01-.084-.017-.075-.065.068-.084,0-.149.018-.243-.084-.019-.039-.1-.069-.153a1.378,1.378,0,0,0-.226-.661c.057-.093-.061-.464-.054-.578l-.084-.048a.428.428,0,0,0-.157-.243c0-.057,0-.057.007-.114-.043,0-.085-.005-.083-.064s0-.057.009-.117l-.048.058a.343.343,0,0,1-.11-.3c-.157-.241-.216-.413-.44-.76-.088.055,0-.183-.108-.129a1.359,1.359,0,0,0-.378-.549c0-.057,0-.057.011-.117a.926.926,0,0,1-.1,0c-.05,0-.043-.057-.038-.117-.28-.183-1.273-.335-1.424-.634-.087,0-.171-.064-.221.05-.04-.061-.04-.061-.078-.12-.232.168-.427-.13-.644-.2l-.046.057c-.074-.178-.218-.009-.306-.011a.128.128,0,0,0-.125-.062c-.229.108-.437-.016-.633.27l-.04-.059.494,1a4.586,4.586,0,0,0,.26.989c.043.013.1.125.134.188-.013.055-.013.055-.024.111.067.131.133.26.2.392-.043-.013-.054.043-.065.1.053.186.05.383.1.564.07.068-.011.107.065.191.007.009-.045.118-.036.125a.3.3,0,0,0,.022.2c.025.2.016.041.143.185-.117.153.083.4-.039.556.066.072.069-.03.088.029a.723.723,0,0,0-.042.079c-.023.041.019.057.061.075.04.113-.033.181.021.289.043.01,0,.15.047.16.01.1.129.132.017.2-.043-.011-.019.193-.063.327a.879.879,0,0,1-.012.333c.042.011.071-.044.056,0s-.014.045-.029.09c.041.009.037.091.022.139,0,.143-.087.217-.132.351-.047.292.093.529-.09.635.065.062-.013.14-.033.185-.062.033-.045.175-.1.209-.068.181-.1.171-.168.349-.11.069-.128.147-.239.217-.017.044-.017.044-.035.086s-.054.036-.093.027c-.072.081-.323.206-.357.292l.02.058a1.6,1.6,0,0,0-.359.183c-.164.107-.287.107-.457.2-.149-.043-.279.075-.428.029-.057.034-.115.068-.171.1-.076-.02-.189.041-.247-.023-.073-.022-.057.129-.131.107l-.075-.022-.018-.056c-.114.066-.206-.011-.322.05l-.018-.051c-.113.062-.208-.006-.28.073a.831.831,0,0,0-.477-.06c.018-.045-.019-.053-.06-.06l-.051.038c.014-.047-.325-.019-.361-.026l-.078-.015-.021-.054-.058.038c-.06-.063-.465-.1-.562-.22-.077.081-.151.044-.239.026a3.917,3.917,0,0,1-.85-.21l-.025-.058a.321.321,0,0,1-.391-.117,1.275,1.275,0,0,1-.147-.03c-.046-.115-.334-.093-.369-.211a1.388,1.388,0,0,1-.2-.185c-.092.062-.328-.244-.371-.263l-.158-.009-.057-.184-.211-.168c-.084-.174-.172-.04-.2-.185" transform="translate(-7.175 -3.625)" fill="#fff"/>
      <path id="패스_8" data-name="패스 8" d="M22.182,7.865c.06,0,.117.005.174.01.28.313.834.22,1.2.419.146-.112.3-.045.436-.1l.088.122c.322-.1.5.073.8.05l.151-.1c.054,0,.113.014.1.072l.074-.051.042.065.076-.05c-.017.056.041.066.1.069.15-.1.241.036.412-.118a.179.179,0,0,0,.151.087c.172-.154.231.009.441-.065l.037.069.077-.043L26.5,8.23c.02-.058.077-.044.133-.031.091.084.154.211.314.132l.03.071c.1-.073-.661-.112.523-.154.077-.036.077-.036.151-.073a.177.177,0,0,0,.137.1c.151-.073.279-.1.43-.167.053.014.137.1.235.009l.031.068c.129-.021.31-.026.438-.047-.023.051-.087-.072-.038-.049.182-.1.381-.218.552-.07.2-.024.289-.135.493-.151.067.107.232-.1.328-.043s.1-.1.162.012l.018.077.062-.094a.257.257,0,0,0,.23-.052c.046.027.094.058.125.012a2.432,2.432,0,0,1,.362-.083c.018.076.127-.038.1.009a.277.277,0,0,1,.246.023c.029-.047.061-.095.108-.065l.056.047c.051-.01.056-.017.12-.073.633-.06.986-.4,1.615-.4l.329-.162c.112-.057.211.092.232-.032-.045-.034.128-.082.161-.123.156-.019.25-.31.313-.4-.045-.031,0-.076-.011-.156l.076-.013a1.566,1.566,0,0,1,0-.457c-.014-.076-.123-.027-.093-.073l-.028-.055c-.045-.034.013-.119.043-.164-.03-.158-.162.02-.223-.091l.113-.186c-.053-.113-.285-.178-.378-.245-.062.094-.057.057-.162.117l-.039-.087c-.109.062-.173-.015-.2.031.044.031-.032.028-.062.071s-.062.093-.107.062a.206.206,0,0,0-.168-.053c-.031.05-.031.05-.061.094a2.253,2.253,0,0,1-1.065-.028c-.078.02-.078.02-.152.042.049.029-.04.087-.013.038.049.027-.138-.027-.164.024-.245,0-.783.057-.678-.013-.124-.007-.367.065-.463.012-.035.171-.206-.1-.26,0,.076-.023-.094-.033-.045-.009l.005.068c-.152.05-.164-.1-.315-.045-.05-.023-.073-.049-.046-.1-.051-.022-.086-.053-.111,0l.025.072c-.078.029-.206-.139-.308-.063-.049-.022-.1-.043-.15-.063a1.193,1.193,0,0,1-.546.119L28.871,5.3c.052.012-.088.1-.07.051a.714.714,0,0,0-.108-.024c-.091.095-.474.09-.582.065.108.025-.217-.206-.2-.085-.27.115-.582-.058-.869-.058-.018-.121-.14.076-.233,0,.019-.053.036-.109-.015-.119-.074.043-.127.024-.2.072-.056-.006-.112-.017-.093-.07-.057-.007-.113-.013-.127.04-.055-.009-.112-.015-.093-.071-.073.047-.145.105-.213.157-.054,0-.042-.061-.028-.117-.237.037-.371-.2-.623-.107.012-.054-.04-.058-.1-.064-.21.151-.5-.013-.7.092-.032-.109-.156-.057-.268-.058-.069.054-.112-.083-.166-.084a3.512,3.512,0,0,0-.757-.122c.108-.116-.771-.121-1.108-.188-.211-.123-.47-.008-.691-.073-.011.059-.026.121-.084.118-.162-.062-.26.116-.446.172-.024.118-.145.175-.113.278-.082.117-.093.139-.15.136-.051.238-.087.216-.144.453.059,0,.117.005.1.062-.042.179.059.245.016.422.057,0,.119.008.1.063a.274.274,0,0,0,.059.246c-.014.058-.029.117-.084.115l.042.062-.074.055a.194.194,0,0,1,.015.182c.046.061.221.071.135.186a11.346,11.346,0,0,0,1.169.778" transform="translate(-9.6 -1.894)" fill="#fff"/>
      <path id="패스_9" data-name="패스 9" d="M125.679,34.1a2.375,2.375,0,0,1-.5-.052,16.924,16.924,0,0,1,.072,1.722,13.746,13.746,0,0,1-.13,2.969c-.095.163-.208.175-.353.248.02.051.031.086.047.137s.027.089.038.146a1.335,1.335,0,0,0,1.222-1.276c.036-.861.01-1.361.014-2.218,0-.661.033-1.064.053-1.727a2.124,2.124,0,0,1-.459.052" transform="translate(-57.856 -14.214)" fill="#fff"/>
      <path id="패스_10" data-name="패스 10" d="M129.746,36.116c-.609,0-1.355.322-1.355,1.521,0,.831.4,1.578,1.344,1.573a1.289,1.289,0,0,0,.872-.281l.118-.332-.071-.054a.971.971,0,0,1-.657.283c-.8,0-.8-1.082-.791-1.143h1.615c.041-.242.077-1.567-1.075-1.567m.327,1.258h-.852c-.009-.019,0-1,.457-1,.418,0,.395,1,.395,1" transform="translate(-59.539 -15.078)" fill="#fff"/>
      <path id="패스_11" data-name="패스 11" d="M134.352,36.271a2.514,2.514,0,0,1-.426-.03c.027.527.033.827.033,1.351a9.6,9.6,0,0,1-.095,2.342.9.9,0,0,1-.356.329l.054.207a1.463,1.463,0,0,0,.82-.4c.483-.47.333-1.3.333-2.51,0-.506.023-.807.059-1.316a2.5,2.5,0,0,1-.423.03" transform="translate(-61.912 -15.131)" fill="#fff"/>
      <path id="패스_12" data-name="패스 12" d="M134.714,33.523a.477.477,0,1,0,.437.475.464.464,0,0,0-.437-.475" transform="translate(-62.268 -13.996)" fill="#fff"/>
      <path id="패스_13" data-name="패스 13" d="M139.2,36.28a1.8,1.8,0,0,1-.4-.038s.036.988.025,1.591c-.01.412-.083.908-.5.9-.439-.006-.448-.5-.448-.9-.005-.637.047-1.562.063-1.591a2.35,2.35,0,0,1-.4.038,2.223,2.223,0,0,1-.445-.038s.017.746.017,1.214c0,.784-.2,1.819.866,1.819a1.065,1.065,0,0,0,.859-.528l-.022.421a2.2,2.2,0,0,1,.386-.034,1.449,1.449,0,0,1,.386.034c-.018-.527-.026-.782-.026-1.3,0-.632.013-1,.047-1.626a1.815,1.815,0,0,1-.4.038" transform="translate(-63.573 -15.131)" fill="#fff"/>
      <path id="패스_14" data-name="패스 14" d="M147.688,35.683c-.205-.118-.873-.355-.867-.845a.575.575,0,0,1,.575-.587.71.71,0,0,1,.7.536l.087,0,.167-.606a1.3,1.3,0,0,0-.932-.291,1.227,1.227,0,0,0-1.247,1.218,1.261,1.261,0,0,0,.836,1.3c.365.192.868.386.858.881a.6.6,0,0,1-.672.617.777.777,0,0,1-.766-.672h-.1a2.988,2.988,0,0,1-.053.38,3.446,3.446,0,0,1-.105.41,1.518,1.518,0,0,0,.92.256,1.329,1.329,0,0,0,1.467-1.33c0-.609-.223-.886-.869-1.266" transform="translate(-67.783 -14.147)" fill="#fff"/>
      <path id="패스_15" data-name="패스 15" d="M153.093,36.136a.861.861,0,0,0-.854.6l.042-.542a1.41,1.41,0,0,1-.4.051,1.312,1.312,0,0,1-.37-.051c.036.967.042,1.534.03,2.5-.01.832-.026,1.32-.071,2.149a2.517,2.517,0,0,1,.405-.035,1.725,1.725,0,0,1,.417.047c-.005-.3-.011-.472-.011-.775,0-.478,0-.763-.01-1.242.207.3.328.473.786.468.731,0,1.107-.719,1.107-1.609,0-.959-.376-1.562-1.076-1.562M152.76,38.9c-.443.006-.495-.64-.495-1.124,0-.535.126-1.252.535-1.252.475,0,.533.69.533,1.206s-.109,1.17-.573,1.17" transform="translate(-70.242 -15.087)" fill="#fff"/>
      <path id="패스_16" data-name="패스 16" d="M158.807,36.116c-.609,0-1.355.322-1.355,1.521,0,.831.4,1.578,1.343,1.573a1.282,1.282,0,0,0,.871-.281l.12-.332-.071-.054a.966.966,0,0,1-.655.283c-.8,0-.8-1.082-.794-1.143h1.614c.042-.242.079-1.567-1.074-1.567m.327,1.258h-.852c-.01-.019.006-1,.458-1,.416,0,.394,1,.394,1" transform="translate(-73.015 -15.078)" fill="#fff"/>
      <path id="패스_17" data-name="패스 17" d="M164.541,36.434c.535,0,.556.538.572.608l.138.023.223-.647a1.549,1.549,0,0,0-.964-.282,1.443,1.443,0,0,0-1.5,1.544,1.388,1.388,0,0,0,1.43,1.526,1.284,1.284,0,0,0,.816-.234l.129-.361-.1-.078a.813.813,0,0,1-.684.283c-.525,0-.739-.543-.739-1.194,0-.541.2-1.188.677-1.188" transform="translate(-75.592 -15.087)" fill="#fff"/>
      <path id="패스_18" data-name="패스 18" d="M169.867,36.241a2.569,2.569,0,0,1-.428.03,2.083,2.083,0,0,1-.429-.03c.02.527.025.82.025,1.346,0,.622-.02.963-.056,1.579a2.586,2.586,0,0,1,.425-.045,2.255,2.255,0,0,1,.432.045c-.035-.633-.047-.972-.035-1.608.008-.506.025-.806.066-1.316" transform="translate(-78.36 -15.131)" fill="#fff"/>
      <path id="패스_19" data-name="패스 19" d="M169.441,33.454a.466.466,0,0,0-.445.479.473.473,0,0,0,.439.5.468.468,0,0,0,.456-.482.478.478,0,0,0-.45-.493" transform="translate(-78.368 -13.967)" fill="#fff"/>
      <path id="패스_20" data-name="패스 20" d="M174.2,38.846a.317.317,0,0,1-.1-.266V36.987c0-.55-.417-.86-1.036-.86a1.524,1.524,0,0,0-1.032.407l.071.369.047,0a.9.9,0,0,1,.682-.356.523.523,0,0,1,.516.52c0,.394-.4.346-.687.44-.167.058-.823.194-.823.863a.749.749,0,0,0,.774.829.827.827,0,0,0,.746-.453.59.59,0,0,0,.541.453.953.953,0,0,0,.528-.176l0-.15a.265.265,0,0,1-.227-.03m-.841-.628c0,.285-.143.577-.418.577s-.307-.259-.311-.481a.567.567,0,0,1,.249-.552c.183-.092.463-.217.48-.217Z" transform="translate(-79.687 -15.083)" fill="#fff"/>
      <path id="패스_21" data-name="패스 21" d="M178.812,33.26a2.233,2.233,0,0,1-.424.045,1.968,1.968,0,0,1-.418-.045c.036.955.047,1.555.043,2.518,0,.85-.018,1.3-.055,2.143a1.722,1.722,0,0,1,.416-.045,1.664,1.664,0,0,1,.445.045c-.017-.854-.035-1.311-.045-2.165-.015-.953.022-1.546.038-2.5" transform="translate(-82.524 -13.886)" fill="#fff"/>
      <path id="패스_22" data-name="패스 22" d="M185.758,35.683c-.2-.118-.873-.355-.866-.845a.574.574,0,0,1,.575-.587.708.708,0,0,1,.7.536l.089,0,.167-.606a1.3,1.3,0,0,0-.932-.291,1.223,1.223,0,0,0-1.244,1.218,1.259,1.259,0,0,0,.832,1.3c.364.192.87.386.859.881a.6.6,0,0,1-.671.617.778.778,0,0,1-.766-.672h-.1a2.439,2.439,0,0,1-.053.38,3.546,3.546,0,0,1-.1.41,1.515,1.515,0,0,0,.919.256,1.328,1.328,0,0,0,1.467-1.33c0-.609-.222-.886-.869-1.266" transform="translate(-85.438 -14.147)" fill="#fff"/>
      <path id="패스_23" data-name="패스 23" d="M190.983,36.116c-.61,0-1.354.322-1.354,1.521,0,.831.4,1.578,1.344,1.573a1.287,1.287,0,0,0,.869-.281l.119-.332-.07-.054a.971.971,0,0,1-.657.283c-.8,0-.8-1.082-.792-1.143h1.613c.042-.242.079-1.567-1.071-1.567m.328,1.258h-.854c-.009-.019.005-1,.457-1,.416,0,.4,1,.4,1" transform="translate(-87.936 -15.078)" fill="#fff"/>
      <path id="패스_24" data-name="패스 24" d="M196.365,33.26a2.22,2.22,0,0,1-.422.045,1.947,1.947,0,0,1-.419-.045c.035.955.047,1.555.041,2.518,0,.85-.016,1.3-.054,2.143a1.72,1.72,0,0,1,.417-.045,1.674,1.674,0,0,1,.446.045c-.016-.854-.034-1.311-.045-2.165-.016-.953.022-1.546.035-2.5" transform="translate(-90.665 -13.886)" fill="#fff"/>
      <path id="패스_25" data-name="패스 25" d="M198.694,35.086h-.4a.426.426,0,0,1,.01.146.669.669,0,0,1-.027.165h.417c-.01.459-.01.728-.027,1.189-.019.7-.035.829-.056,1.378a3.2,3.2,0,0,1,.845,0c0-.475-.02-.879-.02-1.348,0-.531.02-.661.02-1.191H200a.549.549,0,0,1-.016-.164.432.432,0,0,1,.026-.157h-.571l-.172-.64c-.086-.319.092-.441.3-.431a.755.755,0,0,1,.493.186l.084-.051c0-.144.005-.241.005-.39s.022-.237.032-.38a1.445,1.445,0,0,0-.269-.032c-.982-.051-1.226,1.679-1.216,1.719" transform="translate(-91.947 -13.93)" fill="#fff"/>
      <path id="패스_26" data-name="패스 26" d="M204.246,37.351c-.115.005-.56.028-.91.028-.376,0-.721-.051-.96-.034a2.6,2.6,0,0,1,.029.35c0,.149-.019.369-.019.38.337-.028.538-.04.876-.04a9.829,9.829,0,0,1,.988.045,1.686,1.686,0,0,1-.051-.372,1.236,1.236,0,0,1,.047-.357" transform="translate(-93.848 -15.59)" fill="#fff"/>
      <path id="패스_27" data-name="패스 27" d="M210.169,36.391a1.789,1.789,0,0,1-.461-.041,7.645,7.645,0,0,1,.04.82c0,.255,0,.408-.014.664a1.337,1.337,0,0,1-.636.13c-.125,0-1.336-.063-1.34-1.755-.005-.847.427-1.872,1.422-1.872a1.28,1.28,0,0,1,1.1.594l.074.018.145-.617a2.268,2.268,0,0,0-1.311-.377,2.155,2.155,0,0,0-2.342,2.345c0,1.222,1,2.009,2.406,2.009a3.164,3.164,0,0,0,1.3-.273c-.027-.329-.027-.514-.027-.841s.021-.533.053-.862a1.668,1.668,0,0,1-.406.059" transform="translate(-95.919 -14.176)" fill="#fff"/>
      <path id="패스_28" data-name="패스 28" d="M216.167,36.064a1.456,1.456,0,0,0-1.386,1.568c-.006.967.492,1.535,1.37,1.527.927,0,1.4-.656,1.4-1.607a1.331,1.331,0,0,0-1.38-1.489M216.14,38.9c-.391,0-.515-.562-.515-1.291,0-.548.1-1.283.552-1.283s.549.729.549,1.237c0,.7-.146,1.337-.585,1.337" transform="translate(-99.6 -15.057)" fill="#fff"/>
      <path id="패스_29" data-name="패스 29" d="M222.184,36.241s-.172.587-.289.958c-.149.479-.406,1.226-.406,1.226s-.213-.63-.327-1.038c-.126-.442-.3-1.146-.3-1.146a1.9,1.9,0,0,1-.412.051,1.854,1.854,0,0,1-.457-.051c.213.581.334.934.525,1.523.182.553.28.832.449,1.4a1.492,1.492,0,0,1,.316-.034,1.569,1.569,0,0,1,.276.034c.2-.584.323-.912.526-1.494.194-.549.309-.878.5-1.431a.494.494,0,0,1-.185.036.553.553,0,0,1-.219-.036" transform="translate(-102.019 -15.131)" fill="#fff"/>
      <path id="패스_30" data-name="패스 30" d="M226.3,36.116c-.609,0-1.356.322-1.356,1.521,0,.831.4,1.578,1.344,1.573a1.291,1.291,0,0,0,.872-.281l.118-.332-.071-.054a.969.969,0,0,1-.656.283c-.8,0-.8-1.082-.794-1.143h1.615c.041-.242.078-1.567-1.073-1.567m.326,1.258h-.851c-.012-.019,0-1,.456-1,.418,0,.395,1,.395,1" transform="translate(-104.314 -15.078)" fill="#fff"/>
      <path id="패스_31" data-name="패스 31" d="M231.932,36.126a1.143,1.143,0,0,0-.6.788l.011-.736a1.335,1.335,0,0,1-.343.045,1.518,1.518,0,0,1-.4-.045c.026.533.027.8.027,1.329,0,.619-.009.982-.046,1.6a2.441,2.441,0,0,1,.4-.028,2.5,2.5,0,0,1,.407.028c0-.045-.043-.69-.026-1.132s-.06-.849.36-1.033a.492.492,0,0,1,.487.061l.053-.061a2.259,2.259,0,0,1-.022-.425,2.944,2.944,0,0,1,.041-.415.76.76,0,0,0-.349.028" transform="translate(-106.927 -15.067)" fill="#fff"/>
      <path id="패스_32" data-name="패스 32" d="M236.18,36.1a1.047,1.047,0,0,0-.852.528l.016-.447a1.7,1.7,0,0,1-.387.038,1.664,1.664,0,0,1-.384-.038c.02.527.026.805.026,1.328-.006.63-.017.968-.048,1.6a1.9,1.9,0,0,1,.4-.034,1.937,1.937,0,0,1,.4.034c0-.006-.041-.967-.025-1.569,0-.408.078-.909.5-.9s.446.5.452.9c0,.642-.054,1.534-.064,1.569a2.4,2.4,0,0,1,.4-.04,2.261,2.261,0,0,1,.437.04s-.02-.814-.02-1.311c0-.75.124-1.694-.862-1.694" transform="translate(-108.768 -15.073)" fill="#fff"/>
      <path id="패스_33" data-name="패스 33" d="M241.548,36.241a2.551,2.551,0,0,1-.427.03,2.133,2.133,0,0,1-.433-.03c.023.527.029.82.029,1.346-.006.622-.021.963-.058,1.579a2.625,2.625,0,0,1,.428-.045,2.24,2.24,0,0,1,.428.045c-.036-.633-.047-.972-.036-1.608.012-.506.027-.806.068-1.316" transform="translate(-111.601 -15.131)" fill="#fff"/>
      <path id="패스_34" data-name="패스 34" d="M241.125,33.454a.466.466,0,0,0-.445.479.449.449,0,1,0,.894.013.479.479,0,0,0-.449-.493" transform="translate(-111.61 -13.967)" fill="#fff"/>
      <path id="패스_35" data-name="패스 35" d="M245.112,36.1a1.056,1.056,0,0,0-.854.528l.017-.447a1.708,1.708,0,0,1-.386.038,1.675,1.675,0,0,1-.386-.038c.022.527.026.805.026,1.328,0,.63-.016.968-.047,1.6a1.878,1.878,0,0,1,.4-.034,1.976,1.976,0,0,1,.409.034c-.006-.006-.041-.967-.027-1.569,0-.408.078-.909.5-.9s.445.5.45.9c0,.642-.05,1.534-.062,1.569a2.357,2.357,0,0,1,.4-.04,2.289,2.289,0,0,1,.439.04s-.021-.814-.021-1.311c0-.75.122-1.694-.861-1.694" transform="translate(-112.91 -15.073)" fill="#fff"/>
      <path id="패스_36" data-name="패스 36" d="M251.635,36.182c-.253.01-.408.01-.661.01-.427,0-.427-.055-.713-.055-.486,0-1.169.158-1.179.976a.924.924,0,0,0,.7.952v.056c-.005,0-.53.153-.53.576a.517.517,0,0,0,.376.51.772.772,0,0,0-.626.765c0,.638.655.8,1.2.8a1.375,1.375,0,0,0,1.433-1.28.791.791,0,0,0-.363-.7c-.388-.242-1.424.08-1.4-.448.02-.453.5-.04,1.036-.351a.944.944,0,0,0,.489-.849.838.838,0,0,0-.316-.7l.528.028Zm-1.374,3.073c.342,0,.713.091.713.552a.692.692,0,0,1-.766.723.7.7,0,0,1-.693-.718c0-.582.4-.563.746-.557m-.022-1.354c-.3,0-.381-.414-.381-.748s.09-.774.4-.774.349.447.349.781-.063.741-.371.741" transform="translate(-115.469 -15.087)" fill="#fff"/>
      <path id="패스_37" data-name="패스 37" d="M259.676,34.017a7.482,7.482,0,0,1-1.126.012c.032.818.018,1.258.035,2.078.014.838-.017,1.287-.058,2.126.181-.006.29-.013.474-.013s.292,0,.472.013c-.016-.436-.025-.655-.042-1.086-.01-.283-.016-.453-.02-.735.084.05,1.808.2,1.808-1.34,0-.74-.471-1.134-1.543-1.055m-.254,2.06.014-1.734c.778,0,.868.377.868.807a.819.819,0,0,1-.882.927" transform="translate(-119.887 -14.198)" fill="#fff"/>
      <path id="패스_38" data-name="패스 38" d="M265.727,36.126a1.139,1.139,0,0,0-.6.788l.012-.736a1.358,1.358,0,0,1-.343.045,1.529,1.529,0,0,1-.406-.045c.025.533.029.8.029,1.329,0,.619-.011.982-.048,1.6a2.453,2.453,0,0,1,.4-.028,2.507,2.507,0,0,1,.408.028c0-.045-.043-.69-.027-1.132s-.057-.849.361-1.033A.492.492,0,0,1,266,37l.053-.061a2.173,2.173,0,0,1-.022-.425,3.025,3.025,0,0,1,.041-.415.756.756,0,0,0-.348.028" transform="translate(-122.597 -15.067)" fill="#fff"/>
      <path id="패스_39" data-name="패스 39" d="M269.508,36.064a1.456,1.456,0,0,0-1.385,1.568c-.005.967.492,1.535,1.368,1.527.927,0,1.4-.656,1.4-1.607a1.33,1.33,0,0,0-1.38-1.489m-.026,2.837c-.39,0-.515-.562-.515-1.291,0-.548.1-1.283.552-1.283s.55.729.55,1.237c0,.7-.148,1.337-.586,1.337" transform="translate(-124.336 -15.057)" fill="#fff"/>
      <path id="패스_40" data-name="패스 40" d="M275.525,36.241s-.172.587-.288.958c-.15.479-.407,1.226-.407,1.226s-.213-.63-.327-1.038c-.128-.442-.3-1.146-.3-1.146a1.871,1.871,0,0,1-.413.051,1.831,1.831,0,0,1-.455-.051c.212.581.334.934.526,1.523.179.553.28.832.447,1.4a1.505,1.505,0,0,1,.319-.034,1.556,1.556,0,0,1,.275.034c.2-.584.322-.912.523-1.494.2-.549.312-.878.5-1.431a.474.474,0,0,1-.184.036.549.549,0,0,1-.216-.036" transform="translate(-126.754 -15.131)" fill="#fff"/>
      <path id="패스_41" data-name="패스 41" d="M280.08,36.241a2.548,2.548,0,0,1-.428.03,2.089,2.089,0,0,1-.43-.03c.02.527.025.82.025,1.346-.005.622-.02.963-.055,1.579a2.612,2.612,0,0,1,.426-.045,2.255,2.255,0,0,1,.43.045c-.037-.633-.047-.972-.037-1.608.012-.506.026-.806.069-1.316" transform="translate(-129.469 -15.131)" fill="#fff"/>
      <path id="패스_42" data-name="패스 42" d="M279.653,33.454a.466.466,0,0,0-.446.479.473.473,0,0,0,.441.5.468.468,0,0,0,.454-.482.479.479,0,0,0-.449-.493" transform="translate(-129.476 -13.967)" fill="#fff"/>
      <path id="패스_43" data-name="패스 43" d="M283.64,36.1a1.049,1.049,0,0,0-.852.528l.017-.447a1.961,1.961,0,0,1-.773,0c.021.527.026.805.026,1.328,0,.63-.014.968-.047,1.6a1.9,1.9,0,0,1,.4-.034,1.936,1.936,0,0,1,.4.034c0-.006-.042-.967-.026-1.569.008-.408.079-.909.5-.9s.447.5.45.9c0,.642-.051,1.534-.061,1.569a2.339,2.339,0,0,1,.4-.04,2.285,2.285,0,0,1,.439.04s-.022-.814-.022-1.311c0-.75.123-1.694-.861-1.694" transform="translate(-130.777 -15.073)" fill="#fff"/>
      <path id="패스_44" data-name="패스 44" d="M289.262,36.434c.535,0,.557.538.572.608l.136.023.225-.647a1.546,1.546,0,0,0-.965-.282,1.443,1.443,0,0,0-1.5,1.544,1.389,1.389,0,0,0,1.432,1.526,1.28,1.28,0,0,0,.815-.234l.128-.361-.1-.078a.813.813,0,0,1-.682.283c-.527,0-.741-.543-.741-1.194,0-.541.2-1.188.677-1.188" transform="translate(-133.428 -15.087)" fill="#fff"/>
      <path id="패스_45" data-name="패스 45" d="M294.659,36.116c-.609,0-1.355.322-1.355,1.521,0,.831.4,1.578,1.343,1.573a1.292,1.292,0,0,0,.873-.281l.119-.332-.071-.054a.978.978,0,0,1-.659.283c-.8,0-.8-1.082-.792-1.143h1.615c.042-.242.078-1.567-1.073-1.567m.328,1.258h-.853c-.01-.019.005-1,.458-1,.416,0,.395,1,.395,1" transform="translate(-136.014 -15.078)" fill="#fff"/>
      <path id="패스_46" data-name="패스 46" d="M125.6,15s1.071-1.307,2.68-3.45a19.277,19.277,0,0,1,2.049,3.235l.056.132,1.1-1.788-.045-.047a25.618,25.618,0,0,0-2.561-2.371c.1-.132,2.372-3.331,2.372-3.331l-1.027-1.612a10.98,10.98,0,0,1-1.457.223c-.593,0-3.6-.108-3.6-.108l.253,1.421s3-.192,3.6-.237c-1.007,2.092-4.355,7.535-4.355,7.535Z" transform="translate(-57.817 -2.409)" fill="#fff"/>
      <path id="패스_47" data-name="패스 47" d="M136.935,8.869c-.859-.048-1.879-.129-1.879-.129l.1,1.578s1.659-.321,1.814-.352c.1,2.394.111,7.051.111,7.051l1.291-.692,0-.05c.018-.439.4-12.007.4-12.007l-2.049-.426s.11,1.722.21,5.028" transform="translate(-62.629 -1.604)" fill="#fff"/>
      <path id="패스_48" data-name="패스 48" d="M145.139,3.242l-2.214-.184s.375,11.958.386,14.382l1.357-.8Z" transform="translate(-66.278 -1.277)" fill="#fff"/>
      <path id="패스_49" data-name="패스 49" d="M269.38,16.642l.474-13.4-2.3-.185s.375,11.958.384,14.383Z" transform="translate(-124.074 -1.277)" fill="#fff"/>
      <path id="패스_50" data-name="패스 50" d="M243.839,9.638c.723.146,2.143.367,2.143.367.047-.488.107-1.5.107-1.5s-1.51.118-2.219.183l.194-5.443-2.3-.184s.375,11.958.387,14.383l1.436-.8Z" transform="translate(-112.114 -1.277)" fill="#fff"/>
      <path id="패스_51" data-name="패스 51" d="M153.158,10.14s3.184-1.566,4.623-2.43c1.26.789,3.433,2.147,4.145,2.563l.067.039.771-1.665s-3.565-1.478-3.856-1.6c.235-.135,2.907-1.629,2.907-1.629l-1.429-1.366c-1.189.552-7.447.189-7.447.189l.11,1.164s4.488.026,4.848.026a38.85,38.85,0,0,1-5.815,4.174Z" transform="translate(-70.525 -1.693)" fill="#fff"/>
      <path id="패스_52" data-name="패스 52" d="M155.817,22.754l1.821-.906s.252-3.72.252-4.888c.144,0,5.015-.017,5.015-.017l.119-1.161c-6.754.309-12.717.044-12.717.044l.4,1.251s1.953-.08,4.757-.1c.279,3.218.332,4.134.35,5.781" transform="translate(-69.701 -6.589)" fill="#fff"/>
      <path id="패스_53" data-name="패스 53" d="M287.224,11.047l-.025-1.3s-5.185.285-6.842.2c-.029-.294-.136-3.922-.118-4.357,3.358-.14,6.741.044,6.741.044l.111-1.33-8.994.054.181,6.727Z" transform="translate(-128.962 -1.799)" fill="#fff"/>
      <path id="패스_54" data-name="패스 54" d="M282.025,20.486c0-.027.137-3.4.137-3.4l-2.32-.192s.163,2.77.239,3.6c-2.057,0-5.541-.135-5.541-.135l.13,1.374s6.887-.167,12.42-.078l.073-1.308s-2.282.1-5.139.136" transform="translate(-127.313 -7.053)" fill="#fff"/>
      <path id="패스_55" data-name="패스 55" d="M208.669,10.52l.311-6.2-1.917-.193.059,2.309c-.64.03-1.986.013-2.456.008L204.615,4.5l-1.974-.186.545,6.2s3.344-.116,5.483,0m-1.52-2.954.047,1.869-2.451.037-.051-1.929c.805-.013,1.965.01,2.456.023" transform="translate(-93.971 -1.721)" fill="#fff"/>
      <path id="패스_56" data-name="패스 56" d="M217.439,11.112l1.37-.617c.064-.594.492-5.026.618-7.252l-2.214-.185c.029.777.053,1.511.075,2.28-.573-.119-1.52-.308-1.758-.322l.053,1.462,1.732-.164c.011.456.026.934.039,1.444-.6-.031-1.468.036-1.881-.027l-.027,1.261,1.934-.231c.018.706.038,1.479.06,2.351" transform="translate(-99.908 -1.277)" fill="#fff"/>
      <path id="패스_57" data-name="패스 57" d="M212.76,18.881l-.076,1.036c-1.181-.015-4.294-.094-5.661-.166l.608,3.288c2.524-.047,7.348-.047,7.348-.047l.109-1.258a43.374,43.374,0,0,1-5.682.21l-.152-1.1c2.2.057,5.2-.072,5.2-.072l.317-3.067c-1.849.163-7.941.031-7.941.031l.254,1.2c.988-.009,4.854-.047,5.676-.052" transform="translate(-95.913 -7.391)" fill="#fff"/>
      <path id="패스_58" data-name="패스 58" d="M233.451,7.427,232.212,5.86a7.607,7.607,0,0,1-1.655.211c-1.428-.041-2.993-.092-3.9-.143l.3,1.5c2.273-.107,4.006-.274,4.006-.274-.63,1.2-3.291,5.075-4.954,7.427l.876.442c.675-.669,1.819-1.983,2.989-3.36a34.394,34.394,0,0,1,2.69,3.264l.9-1.949c-.8-.67-2.1-1.574-2.9-2.124,1.186-1.4,2.309-2.753,2.9-3.43" transform="translate(-104.803 -2.447)" fill="#fff"/>
      <path id="패스_59" data-name="패스 59" d="M258.6,5.145l.043-1.037c-1.3,0-4.106-.208-4.819-.233l.184,1.369s3.2-.03,4.592-.1" transform="translate(-117.706 -1.618)" fill="#fff"/>
      <path id="패스_60" data-name="패스 60" d="M257.652,16.022l.944-1.87c-.891-.679-2.085-1.491-2.773-1.952,1.455-1.566,2.666-2.92,2.666-2.92l-1.24-1.4a6.907,6.907,0,0,1-1.779.188c-1.47-.04-2.721-.111-3.736-.119l.3,1.524c1.377-.1,3.814-.37,3.814-.37a76.445,76.445,0,0,1-4.649,6.459l.925.446c.783-.735,1.847-1.837,2.879-2.933a36.384,36.384,0,0,1,2.646,2.946" transform="translate(-116.49 -3.291)" fill="#fff"/>
      <path id="패스_61" data-name="패스 61" d="M188.878,9.242l-.048-1.228a63.843,63.843,0,0,1-6.73.083l.011-1.031c2.039.008,4.252.041,6.655.157V6.03c-1.994.094-3.719.171-6.647.062l.01-.883c1.751.054,4.659.094,6.695.016l.029-1.165a76.979,76.979,0,0,1-8.86-.083l.235,5.19c1.17.044,5.106-.027,8.651.077" transform="translate(-83.468 -1.66)" fill="#fff"/>
      <path id="패스_62" data-name="패스 62" d="M186.8,20.592s.158,2.887.136,3.706l1.65-.867.426-3.977s-7.37.064-9.226.024l.184,1.142c3.51-.114,6.829-.027,6.829-.027" transform="translate(-83.372 -8.122)" fill="#fff"/>
      <path id="패스_63" data-name="패스 63" d="M189.164,16.3l.119-1.162c-6.755.311-12.555.046-12.555.046l.407,1.251c6.227-.263,12.029-.136,12.029-.136" transform="translate(-81.954 -6.321)" fill="#fff"/>
    </g>
  </g>
</svg>
